<svg xmlns="http://www.w3.org/2000/svg" viewBox="0 0 32 32">
  <path fill="#000000" d="M32 24.795c-1.164.296-1.884.013-2.53-.957l-4.594-6.356-.664-.88-5.365 7.257c-.613.873-1.256 1.253-2.4.944l6.87-9.222-6.396-8.33c1.1-.214 1.86-.105 2.535.88l4.765 6.435 4.8-6.4c.615-.873 1.276-1.205 2.38-.883l-2.48 3.288-3.36 4.375c-.4.5-.345.842.023 1.325L32 24.795zM.008 15.427l.975-5.248c.336-1.61 1.142-2.167 2.89-2.167h8.294c1.748 0 2.554.558 2.89 2.167l.976 5.248c.34 1.687-.236 2.37-1.832 2.37h-2.372c.82-4.328 1.432-7.568 1.432-7.568.084-.417.073-.6-.252-.6h-7.684c-.322 0-.337.183-.252.6 0 0 .613 3.24 1.432 7.567h-2.53c-1.6 0-2.172-.683-1.833-2.37z"/>
</svg>

